# xmcd
#
# Track frame offsets: 
#        183
#        41393
#        67333
#        90690
#        116930
#        124420
#        138650
#        164018
#        191340
#        202735
#
# Disc length: 3128 seconds
#
# Revision: 22
# Processed by: cddbd v1.5.2PL0 Copyright (c) Steve Scherf et al.
# Submitted via: ExactAudioCopy v1.1
#
DISCID=980c360a
DTITLE=Emil Gilels - Beethoven Piano Sonatas Moonlight and No 13 and Pathe
DTITLE=tique
DYEAR=1981
DGENRE=Classical
TTITLE0=Beethoven Piano Sonata No 08 Op 13 Pathetique - 1 Grave-Allegr
TTITLE0=o di molto e con brio
TTITLE1=Beethoven Piano Sonata No 08 Op 13 Pathetique - 2 Adagio canta
TTITLE1=bile
TTITLE2=Beethoven Piano Sonata No 08 Op 13 Pathetique - 3 Rondo(Allegr
TTITLE2=o)
TTITLE3=Beethoven Piano Sonata No 13 in E-Flat Op 27 No 1 - 1 Andante-
TTITLE3=Allegro-Tempo I-
TTITLE4=Beethoven Piano Sonata No 13 in E-Flat Op 27 No 1 - 2 Allegro 
TTITLE4=molto e vivace-
TTITLE5=Beethoven Piano Sonata No 13 in E-Flat Op 27 No 1 - 3 Adagio c
TTITLE5=on espressione-
TTITLE6=Beethoven Piano Sonata No 13 in E-Flat Op 27 No 1 - 4 Allegro 
TTITLE6=vivace-Presto
TTITLE7=Beethoven Piano Sonata No 14 in c charp minor Op 27 No 2 Moonl
TTITLE7=ight - 1 Adagio sostenuto
TTITLE8=Beethoven Piano Sonata No 14 in c charp minor Op 27 No 2 Moonl
TTITLE8=ight - 2 Allegretto
TTITLE9=Beethoven Piano Sonata No 14 in c charp minor Op 27 No 2 Moonl
TTITLE9=ight - 3 Presto agitato
EXTD=Played by Emil Gilels
EXTT0=
EXTT1=
EXTT2=
EXTT3=
EXTT4=
EXTT5=
EXTT6=
EXTT7=
EXTT8=
EXTT9=
PLAYORDER=
